<?xml version="1.0" encoding="utf-8"?>
<svg id="svg" version="1.1" viewBox="0, 0, 400,400" width="40" xmlns="http://www.w3.org/2000/svg" xmlns:xlink="http://www.w3.org/1999/xlink"><g id="svgg"><path d="M63.833 162.010 C 63.957 162.134,63.707 162.480,63.279 162.780 C 62.850 163.080,62.500 163.579,62.500 163.889 C 62.500 164.199,62.324 164.453,62.109 164.453 C 61.562 164.453,61.588 174.482,62.136 174.821 C 62.365 174.963,62.443 175.369,62.308 175.723 C 62.119 176.221,62.169 176.262,62.530 175.904 C 62.890 175.547,63.125 175.569,63.557 176.002 C 64.206 176.650,66.406 176.763,66.406 176.149 C 66.406 175.921,66.564 175.832,66.756 175.951 C 66.948 176.070,67.213 175.886,67.345 175.543 C 67.477 175.200,67.805 175.004,68.075 175.107 C 68.692 175.344,68.937 169.161,68.430 166.130 C 68.200 164.753,68.229 163.947,68.518 163.632 C 68.835 163.287,68.812 163.242,68.431 163.458 C 68.137 163.625,67.719 163.504,67.454 163.176 C 67.200 162.860,66.231 162.418,65.300 162.194 C 64.370 161.969,63.710 161.887,63.833 162.010 M101.852 162.533 C 101.475 162.753,100.987 162.822,100.768 162.687 C 100.550 162.552,100.396 162.587,100.427 162.764 C 100.551 163.475,100.374 164.098,100.098 163.926 C 99.314 163.439,100.186 175.058,100.977 175.646 C 101.406 175.966,101.729 176.346,101.693 176.492 C 101.657 176.638,102.387 176.758,103.316 176.758 C 104.244 176.758,104.921 176.625,104.821 176.462 C 104.720 176.299,104.897 176.067,105.213 175.946 C 106.590 175.417,107.230 166.292,106.078 163.602 C 105.586 162.453,103.079 161.819,101.852 162.533 M121.663 194.727 C 121.663 203.535,121.714 207.194,121.777 202.858 C 121.840 198.522,121.840 191.315,121.777 186.843 C 121.714 182.370,121.663 185.918,121.663 194.727 M278.906 181.248 C 279.376 181.607,279.240 181.665,278.223 181.541 C 277.524 181.455,276.953 181.549,276.953 181.750 C 276.953 181.951,276.689 182.014,276.367 181.890 C 276.045 181.766,275.781 181.846,275.781 182.067 C 275.781 182.287,275.618 182.367,275.418 182.243 C 275.218 182.120,274.942 182.200,274.805 182.422 C 274.668 182.644,274.436 182.752,274.289 182.661 C 274.143 182.571,273.975 183.184,273.916 184.022 C 273.854 184.910,273.984 185.547,274.226 185.547 C 274.456 185.547,274.592 185.854,274.529 186.230 C 274.179 188.313,279.303 188.513,280.397 186.459 C 280.989 185.347,281.132 182.627,280.599 182.622 C 280.026 182.616,279.492 182.096,279.492 181.543 C 279.492 181.310,279.229 181.048,278.906 180.960 C 278.385 180.818,278.385 180.850,278.906 181.248 M135.938 182.549 C 135.830 182.658,135.790 190.101,135.849 199.088 L 135.955 215.430 138.681 215.555 L 141.406 215.680 141.406 209.822 L 141.406 203.964 146.973 203.837 C 151.939 203.725,152.750 203.608,154.492 202.754 C 155.566 202.228,156.621 201.716,156.836 201.617 C 157.051 201.517,156.971 201.772,156.658 202.183 C 156.345 202.593,156.740 202.324,157.537 201.584 C 158.985 200.237,159.373 199.714,158.543 200.227 C 158.300 200.377,158.177 200.343,158.270 200.152 C 160.124 196.325,160.283 195.767,160.308 192.999 C 160.326 191.107,160.176 190.046,159.877 189.946 C 159.625 189.862,159.503 189.574,159.606 189.307 C 159.708 189.039,159.347 188.164,158.802 187.362 C 157.640 185.649,157.552 185.252,158.496 185.976 C 158.872 186.264,158.754 186.022,158.233 185.437 C 157.284 184.373,156.773 184.032,157.227 184.766 C 157.359 184.980,157.303 185.156,157.102 185.156 C 156.609 185.156,155.811 184.163,156.084 183.890 C 156.204 183.770,156.087 183.539,155.825 183.377 C 155.498 183.175,155.449 183.245,155.668 183.600 C 155.903 183.980,155.807 184.048,155.306 183.855 C 154.930 183.712,154.540 183.594,154.437 183.594 C 154.335 183.594,154.332 183.462,154.432 183.301 C 154.727 182.823,136.402 182.077,135.938 182.549 M314.846 182.933 C 314.845 183.107,314.624 183.123,314.355 182.968 C 314.087 182.813,314.261 183.120,314.743 183.651 C 315.443 184.421,315.522 184.714,315.134 185.109 C 314.746 185.503,314.757 185.577,315.186 185.477 C 315.481 185.408,315.811 185.596,315.920 185.894 C 316.052 186.258,315.952 186.335,315.615 186.127 C 315.284 185.922,315.210 185.972,315.396 186.274 C 315.552 186.526,315.831 186.638,316.016 186.523 C 316.202 186.408,316.667 186.845,317.050 187.493 C 317.433 188.141,317.906 188.672,318.101 188.672 C 318.296 188.672,318.214 188.969,317.919 189.333 C 317.596 189.731,317.569 189.882,317.852 189.712 C 318.153 189.531,318.835 190.238,319.759 191.688 C 320.550 192.930,321.394 194.074,321.634 194.232 C 322.073 194.521,321.658 194.698,320.898 194.545 C 320.684 194.502,320.654 194.613,320.833 194.792 C 321.012 194.971,321.349 195.117,321.582 195.117 C 321.815 195.117,322.087 195.361,322.186 195.660 C 322.310 196.031,322.197 196.104,321.828 195.890 C 321.510 195.706,321.422 195.724,321.615 195.933 C 321.794 196.129,322.057 196.289,322.201 196.289 C 322.673 196.289,324.021 197.872,324.142 198.569 C 324.286 199.398,322.724 202.041,322.259 201.754 C 322.078 201.642,321.802 201.756,321.646 202.007 C 321.470 202.293,321.533 202.360,321.815 202.186 C 322.610 201.694,322.304 202.425,320.660 204.949 C 319.776 206.305,318.910 207.325,318.734 207.216 C 318.557 207.108,318.286 207.224,318.131 207.476 C 317.941 207.782,318.019 207.828,318.365 207.613 C 319.175 207.113,318.619 208.241,316.487 211.425 C 313.594 215.744,313.581 215.625,316.944 215.625 C 320.145 215.625,320.240 215.564,322.175 212.305 C 325.132 207.321,326.523 205.281,326.903 205.366 C 327.130 205.418,327.230 205.237,327.126 204.965 C 326.545 203.450,328.059 202.905,329.253 204.199 C 329.898 204.897,330.332 205.469,330.220 205.469 C 330.107 205.469,330.380 206.061,330.828 206.784 C 331.740 208.261,331.858 208.774,331.190 208.361 C 330.908 208.187,330.845 208.254,331.021 208.540 C 331.177 208.791,331.454 208.905,331.637 208.791 C 331.820 208.678,332.599 209.621,333.368 210.887 C 334.862 213.347,335.053 213.884,334.277 213.437 C 333.994 213.274,333.925 213.305,334.115 213.512 C 334.294 213.707,334.557 213.867,334.701 213.867 C 334.844 213.867,335.356 214.263,335.840 214.746 C 336.647 215.553,342.578 216.163,342.578 215.438 C 342.578 215.170,333.590 201.103,332.925 200.331 C 332.329 199.638,332.399 197.395,333.030 196.948 C 333.239 196.800,334.091 195.674,334.925 194.446 C 335.759 193.217,336.619 192.321,336.836 192.455 C 337.057 192.592,337.110 192.505,336.957 192.257 C 336.718 191.870,338.072 188.811,338.716 188.282 C 338.847 188.174,339.746 186.848,340.712 185.336 L 342.468 182.586 339.369 182.635 L 336.270 182.685 335.296 184.318 C 334.761 185.216,334.171 185.857,333.985 185.743 C 333.800 185.628,333.521 185.740,333.365 185.991 C 333.189 186.277,333.252 186.344,333.533 186.170 C 334.370 185.653,333.993 186.542,332.006 189.770 C 330.828 191.685,329.856 192.878,329.602 192.721 C 329.342 192.560,329.288 192.639,329.466 192.926 C 329.833 193.520,328.617 195.421,328.081 195.090 C 327.861 194.954,327.779 194.588,327.899 194.276 C 328.018 193.964,327.953 193.810,327.753 193.934 C 327.554 194.057,325.982 191.777,324.261 188.867 C 322.540 185.957,320.903 183.350,320.624 183.073 C 320.066 182.519,314.850 182.393,314.846 182.933 M150.636 187.316 C 150.544 187.554,150.759 187.737,151.114 187.722 C 151.468 187.707,151.758 187.809,151.758 187.947 C 151.758 188.454,153.239 189.819,153.569 189.616 C 154.061 189.311,154.688 191.209,154.688 193.007 C 154.688 194.775,153.708 197.431,153.177 197.103 C 152.982 196.982,152.583 197.189,152.290 197.563 C 151.808 198.178,151.823 198.191,152.441 197.706 C 152.875 197.366,153.125 197.327,153.125 197.600 C 153.125 198.785,150.087 199.609,145.719 199.609 L 141.406 199.609 141.406 193.134 L 141.406 186.658 146.104 186.770 C 149.342 186.848,150.750 187.017,150.636 187.316 M153.510 189.208 C 153.513 189.395,153.254 189.332,152.934 189.066 C 152.614 188.801,152.460 188.409,152.592 188.195 C 152.834 187.804,153.498 188.536,153.510 189.208 M163.932 190.495 C 163.571 190.856,163.603 215.927,163.965 216.151 C 164.126 216.250,164.258 210.460,164.258 203.283 C 164.258 196.106,164.243 190.234,164.225 190.234 C 164.207 190.234,164.076 190.352,163.932 190.495 M170.039 192.578 C 170.039 193.760,170.112 194.243,170.202 193.652 C 170.291 193.062,170.291 192.095,170.202 191.504 C 170.112 190.913,170.039 191.396,170.039 192.578 M175.057 191.043 C 174.551 191.246,173.652 191.757,173.059 192.179 C 172.467 192.600,171.888 192.851,171.772 192.736 C 171.657 192.621,171.430 192.741,171.268 193.003 C 171.085 193.298,171.136 193.380,171.400 193.216 C 171.663 193.053,171.804 193.269,171.766 193.776 C 171.731 194.242,171.232 194.844,170.617 195.162 L 169.531 195.723 169.531 193.565 L 169.531 191.406 167.871 191.412 C 166.958 191.415,165.815 191.523,165.332 191.652 L 164.453 191.888 164.453 203.756 L 164.453 215.625 166.943 215.625 L 169.432 215.625 169.503 209.006 C 169.578 201.950,169.777 200.678,171.093 198.830 C 171.868 197.740,173.045 197.102,172.424 198.107 C 172.250 198.389,172.317 198.452,172.602 198.276 C 172.854 198.120,172.958 197.829,172.834 197.629 C 172.507 197.099,174.394 196.484,176.347 196.484 L 178.034 196.484 178.305 193.956 C 178.668 190.562,177.924 189.895,175.057 191.043 M188.297 191.025 C 188.519 191.163,187.985 191.597,187.110 191.992 C 184.196 193.306,181.747 196.743,180.910 200.691 C 180.269 203.715,181.377 210.547,182.508 210.547 C 182.736 210.547,182.692 210.808,182.404 211.155 C 182.126 211.489,182.061 211.732,182.258 211.695 C 183.265 211.503,183.681 211.729,183.258 212.238 C 182.927 212.637,183.112 213.024,184.052 213.899 C 184.726 214.526,185.138 214.797,184.967 214.500 C 184.796 214.204,184.813 214.037,185.004 214.129 C 188.787 215.962,189.471 216.165,192.383 216.318 C 195.334 216.473,196.407 216.275,199.380 215.025 C 199.948 214.787,200.051 214.835,199.808 215.228 C 199.594 215.575,199.639 215.653,199.946 215.463 C 200.198 215.308,200.315 215.037,200.207 214.862 C 199.962 214.466,203.018 211.487,203.531 211.621 C 203.738 211.675,203.906 211.531,203.906 211.302 C 203.906 211.054,203.569 210.992,203.076 211.148 C 202.546 211.317,202.336 211.265,202.497 211.006 C 202.634 210.783,202.541 210.474,202.290 210.318 C 201.988 210.131,201.938 210.206,202.142 210.537 C 202.350 210.874,202.274 210.974,201.910 210.842 C 201.611 210.733,201.404 210.467,201.450 210.251 C 201.495 210.035,201.231 209.881,200.864 209.909 C 200.496 209.938,200.244 209.728,200.303 209.444 C 200.427 208.843,199.819 209.127,198.564 210.255 C 198.097 210.676,197.521 210.900,197.285 210.754 C 197.049 210.608,196.881 210.634,196.912 210.811 C 197.038 211.541,196.847 211.981,196.387 212.015 C 196.118 212.035,195.009 212.172,193.922 212.321 C 191.031 212.716,186.585 210.134,187.235 208.438 C 187.376 208.071,187.278 207.922,186.971 208.040 C 186.638 208.168,186.453 207.727,186.389 206.653 L 186.296 205.078 194.925 205.078 L 203.553 205.078 203.385 201.771 C 203.197 198.050,202.392 196.047,200.154 193.725 C 199.416 192.960,198.942 192.204,199.101 192.045 C 199.260 191.886,199.104 191.865,198.754 192.000 C 198.404 192.134,197.530 191.928,196.813 191.543 C 195.561 190.870,187.226 190.363,188.297 191.025 M212.151 191.041 C 212.355 191.167,212.069 191.477,211.516 191.729 C 210.256 192.303,210.038 192.305,210.389 191.737 C 210.567 191.448,210.495 191.392,210.191 191.580 C 209.928 191.742,209.815 191.976,209.939 192.100 C 210.248 192.410,208.555 194.163,208.173 193.927 C 208.005 193.823,207.753 193.920,207.615 194.144 C 207.477 194.368,207.509 194.525,207.686 194.495 C 208.478 194.357,208.604 194.576,208.051 195.130 C 204.605 198.576,208.112 203.328,215.730 205.537 C 219.981 206.769,220.881 207.304,221.263 208.826 C 222.186 212.501,215.867 213.781,211.573 210.788 C 209.734 209.506,209.521 209.446,208.713 209.975 C 207.643 210.676,207.285 210.704,207.657 210.059 C 207.820 209.775,207.789 209.707,207.582 209.896 C 207.387 210.075,207.220 210.339,207.213 210.482 C 207.205 210.625,206.978 211.140,206.708 211.627 C 206.349 212.273,206.339 212.483,206.673 212.408 C 206.924 212.351,207.218 212.549,207.326 212.847 C 207.462 213.221,207.355 213.293,206.984 213.077 C 206.688 212.905,206.871 213.232,207.392 213.804 C 208.390 214.900,209.035 215.260,208.203 214.258 C 207.932 213.931,207.890 213.672,208.107 213.672 C 208.551 213.672,209.276 214.454,209.374 215.039 C 209.411 215.254,209.542 215.518,209.665 215.625 C 209.789 215.732,209.772 215.613,209.627 215.359 C 209.481 215.105,209.541 214.787,209.759 214.652 C 209.978 214.517,210.156 214.586,210.156 214.806 C 210.156 216.159,218.065 216.866,220.898 215.765 C 221.758 215.431,222.756 215.137,223.117 215.112 C 223.477 215.087,223.742 214.973,223.704 214.858 C 223.666 214.743,224.158 213.965,224.796 213.129 C 226.252 211.224,226.725 206.859,225.598 205.732 C 225.239 205.372,225.072 205.078,225.228 205.078 C 225.384 205.078,225.197 204.731,224.813 204.306 C 224.429 203.881,223.918 203.652,223.678 203.795 C 223.438 203.939,223.506 203.725,223.828 203.320 C 224.150 202.916,224.210 202.707,223.961 202.856 C 223.339 203.229,222.211 202.748,222.524 202.242 C 222.668 202.009,222.590 201.948,222.344 202.100 C 222.106 202.247,221.447 202.251,220.879 202.109 C 220.312 201.966,220.023 201.741,220.238 201.608 C 220.453 201.476,219.898 201.355,219.006 201.340 C 211.792 201.219,209.197 195.439,216.158 194.996 C 218.651 194.837,220.887 195.541,220.603 196.394 C 220.494 196.722,220.643 196.800,222.266 197.266 C 223.107 197.507,223.375 197.480,223.186 197.174 C 223.012 196.893,223.152 196.832,223.589 196.999 C 223.958 197.141,224.168 197.109,224.057 196.929 C 223.946 196.749,224.279 196.375,224.797 196.098 C 225.316 195.820,225.847 195.310,225.979 194.965 C 226.170 194.463,226.120 194.434,225.729 194.822 C 225.291 195.257,224.228 193.788,224.058 192.513 C 224.039 192.370,223.863 192.106,223.668 191.927 C 223.463 191.740,223.425 191.798,223.577 192.063 C 223.722 192.317,223.662 192.635,223.444 192.769 C 223.090 192.988,222.880 192.492,222.996 191.713 C 223.019 191.560,222.747 191.546,222.392 191.682 C 221.985 191.838,221.843 191.774,222.007 191.509 C 222.174 191.239,221.953 191.157,221.387 191.281 C 220.777 191.415,220.663 191.363,221.015 191.112 C 221.336 190.884,219.734 190.762,216.651 190.781 C 213.971 190.798,211.946 190.915,212.151 191.041 M238.129 190.990 C 238.404 191.271,235.884 192.201,235.497 191.961 C 235.299 191.839,235.185 191.972,235.244 192.256 C 235.303 192.541,235.056 192.751,234.695 192.724 C 234.334 192.696,233.543 193.217,232.937 193.881 C 232.332 194.544,232.144 194.853,232.520 194.566 C 233.104 194.121,233.203 194.137,233.203 194.679 C 233.203 195.027,233.027 195.334,232.813 195.361 C 232.598 195.388,232.261 195.432,232.064 195.459 C 231.867 195.486,231.559 195.668,231.380 195.863 C 231.191 196.070,231.259 196.101,231.543 195.938 C 232.194 195.563,232.172 195.684,231.170 197.900 C 229.913 200.683,229.902 206.812,231.149 209.516 C 234.621 217.039,245.724 218.921,250.907 212.865 C 251.668 211.977,252.207 211.036,252.107 210.774 C 251.813 210.008,248.635 208.621,248.031 208.994 C 247.738 209.175,247.382 209.251,247.239 209.163 C 246.962 208.992,245.842 210.093,245.633 210.742 C 245.564 210.957,245.290 211.109,245.024 211.079 C 244.757 211.050,244.625 211.163,244.729 211.331 C 244.994 211.761,243.925 212.109,242.338 212.109 C 240.733 212.109,238.134 211.102,238.444 210.599 C 238.700 210.185,237.733 209.273,237.395 209.610 C 237.009 209.996,236.031 207.715,235.612 205.449 C 235.190 203.165,235.687 199.408,236.356 199.822 C 236.551 199.942,236.594 199.739,236.453 199.370 C 236.264 198.879,236.334 198.786,236.713 199.020 C 237.064 199.237,237.137 199.189,236.941 198.871 C 236.606 198.329,237.696 196.484,238.351 196.484 C 238.594 196.484,238.458 196.880,238.049 197.363 L 237.305 198.242 238.174 197.506 C 238.653 197.102,238.955 196.627,238.847 196.452 C 237.692 194.583,244.328 195.076,246.479 197.019 C 247.371 197.825,248.222 198.430,248.369 198.363 C 248.516 198.297,249.464 197.913,250.476 197.511 C 252.431 196.734,252.472 195.706,250.612 194.162 C 249.769 193.463,249.836 192.749,250.684 193.390 C 251.272 193.835,251.297 193.829,250.864 193.345 C 250.587 193.036,250.060 192.780,249.692 192.778 C 249.324 192.775,249.072 192.541,249.131 192.256 C 249.190 191.972,249.097 191.826,248.925 191.932 C 248.753 192.038,247.581 191.777,246.321 191.352 C 244.284 190.664,237.520 190.365,238.129 190.990 M256.437 203.320 C 256.445 215.935,256.462 216.212,257.227 216.249 C 257.810 216.278,257.836 216.247,257.330 216.125 C 256.706 215.976,256.642 214.940,256.540 203.196 L 256.429 190.430 256.437 203.320 M266.762 191.465 C 265.915 191.845,265.084 192.527,264.915 192.982 C 264.747 193.436,264.487 193.795,264.336 193.779 C 264.186 193.763,264.023 193.882,263.975 194.043 C 263.325 196.221,262.124 195.578,262.115 193.048 L 262.109 191.369 259.668 191.485 L 257.227 191.602 257.123 203.556 L 257.020 215.510 259.542 215.553 L 262.063 215.595 262.218 208.091 C 262.404 199.060,262.436 198.883,263.929 198.664 C 264.325 198.606,264.648 198.314,264.648 198.015 C 264.648 197.139,266.830 196.294,269.043 196.313 L 271.094 196.330 271.094 193.716 L 271.094 191.101 269.699 190.938 C 268.875 190.842,267.672 191.058,266.762 191.465 M271.596 192.383 C 271.599 193.457,271.675 193.850,271.765 193.256 C 271.854 192.663,271.852 191.784,271.759 191.303 C 271.667 190.823,271.593 191.309,271.596 192.383 M296.680 191.219 C 294.772 191.910,294.812 191.908,295.157 191.309 C 295.320 191.025,295.289 190.957,295.082 191.146 C 294.887 191.325,294.726 191.676,294.726 191.927 C 294.725 192.178,294.424 192.385,294.057 192.387 C 293.690 192.390,293.163 192.645,292.886 192.954 C 292.453 193.438,292.478 193.445,293.066 193.000 C 293.442 192.715,293.750 192.645,293.750 192.843 C 293.750 193.467,292.896 194.088,292.335 193.873 C 292.039 193.759,291.797 193.890,291.797 194.164 C 291.797 194.438,291.670 194.535,291.516 194.380 C 291.361 194.225,291.286 193.493,291.350 192.752 L 291.466 191.406 288.716 191.406 L 285.967 191.406 285.946 208.807 L 285.924 226.208 288.568 226.092 L 291.211 225.977 291.318 219.634 L 291.426 213.291 292.490 214.379 C 293.076 214.978,293.203 215.047,292.773 214.534 L 291.992 213.601 293.359 214.320 C 294.111 214.716,294.855 215.215,295.013 215.430 C 295.205 215.690,295.305 215.690,295.313 215.430 C 295.319 215.215,295.486 215.294,295.682 215.605 C 296.499 216.895,303.406 216.461,304.837 215.029 C 305.154 214.712,305.548 214.453,305.712 214.453 C 306.227 214.453,308.203 212.380,308.203 211.841 C 308.203 211.559,308.358 211.328,308.546 211.328 C 308.947 211.328,310.005 208.957,309.838 208.434 C 309.775 208.239,309.953 207.938,310.233 207.765 C 310.887 207.360,310.959 199.721,310.313 199.302 C 309.899 199.033,309.828 198.755,309.652 196.712 C 309.607 196.193,309.482 195.774,309.375 195.782 C 308.592 195.837,308.194 195.643,308.402 195.306 C 308.537 195.088,308.839 195.027,309.072 195.171 C 309.327 195.329,309.383 195.251,309.213 194.976 C 309.058 194.724,308.794 194.603,308.627 194.706 C 308.292 194.913,306.091 192.772,306.310 192.452 C 306.384 192.342,306.285 192.106,306.090 191.927 C 305.880 191.735,305.862 191.822,306.046 192.141 C 306.261 192.511,306.189 192.618,305.816 192.482 C 305.518 192.374,305.322 192.074,305.381 191.817 C 305.440 191.559,305.306 191.460,305.084 191.598 C 304.862 191.735,304.307 191.729,303.851 191.584 C 303.393 191.439,303.202 191.209,303.425 191.071 C 304.285 190.536,298.193 190.670,296.680 191.219 M274.786 191.899 C 274.682 192.170,274.644 197.575,274.701 203.911 L 274.805 215.430 277.344 215.430 L 279.883 215.430 279.986 203.418 L 280.089 191.406 277.532 191.406 C 275.835 191.406,274.912 191.572,274.786 191.899 M77.846 193.555 C 77.849 194.629,77.925 195.022,78.015 194.428 C 78.104 193.834,78.102 192.956,78.009 192.475 C 77.917 191.995,77.843 192.480,77.846 193.555 M194.958 195.332 C 195.380 195.558,195.629 195.897,195.512 196.086 C 195.395 196.276,195.506 196.558,195.757 196.713 C 196.043 196.890,196.110 196.826,195.936 196.545 C 195.532 195.892,196.303 195.990,196.861 196.663 C 197.120 196.975,197.203 197.442,197.044 197.699 C 196.860 197.996,196.920 198.065,197.206 197.888 C 197.719 197.571,198.438 199.140,198.438 200.579 C 198.438 201.791,198.532 201.776,191.998 201.640 L 186.328 201.522 186.328 200.546 C 186.328 199.351,187.410 197.164,187.863 197.444 C 188.044 197.556,188.408 197.388,188.672 197.070 C 188.935 196.753,189.334 196.606,189.558 196.744 C 189.802 196.895,189.847 196.805,189.670 196.519 C 189.449 196.161,189.191 196.210,188.633 196.715 C 188.225 197.084,187.891 197.201,187.891 196.974 C 187.891 195.485,193.019 194.294,194.958 195.332 M301.094 195.861 C 302.627 196.659,304.042 198.292,303.692 198.860 C 303.496 199.177,303.557 199.239,303.872 199.044 C 304.176 198.857,304.427 199.048,304.564 199.570 C 304.682 200.021,304.902 200.391,305.054 200.391 C 305.205 200.391,305.308 201.852,305.282 203.638 C 305.235 206.927,304.316 209.570,303.220 209.570 C 302.975 209.570,302.545 209.826,302.266 210.137 C 301.827 210.627,301.851 210.634,302.441 210.187 C 302.877 209.858,303.125 209.824,303.125 210.095 C 303.125 210.689,301.639 211.421,301.103 211.091 C 300.848 210.932,300.768 210.990,300.914 211.227 C 301.251 211.772,300.263 212.118,298.503 212.070 C 296.508 212.016,295.097 211.544,295.225 210.972 C 295.284 210.706,295.141 210.607,294.907 210.751 C 294.294 211.130,292.973 209.819,292.141 208.008 C 291.094 205.728,291.160 199.560,292.224 200.218 C 292.414 200.335,292.453 200.130,292.312 199.761 C 292.139 199.309,292.202 199.182,292.507 199.370 C 292.812 199.559,292.876 199.431,292.703 198.980 C 292.510 198.477,292.584 198.389,293.000 198.626 C 293.428 198.870,293.452 198.832,293.105 198.456 C 291.431 196.640,298.301 194.409,301.094 195.861 M77.825 198.047 C 77.825 198.799,77.905 199.106,78.004 198.730 C 78.102 198.354,78.102 197.739,78.004 197.363 C 77.905 196.987,77.825 197.295,77.825 198.047 M311.427 203.320 C 311.431 204.180,311.511 204.485,311.604 203.999 C 311.698 203.513,311.694 202.810,311.597 202.437 C 311.499 202.063,311.422 202.461,311.427 203.320 M262.617 204.297 C 262.617 205.479,262.690 205.962,262.780 205.371 C 262.869 204.780,262.869 203.813,262.780 203.223 C 262.690 202.632,262.617 203.115,262.617 204.297 M170.080 209.180 C 170.080 212.617,170.140 213.971,170.213 212.188 C 170.285 210.406,170.285 207.593,170.212 205.938 C 170.139 204.284,170.080 205.742,170.080 209.180 M102.111 209.570 C 102.112 213.008,102.171 214.362,102.244 212.579 C 102.317 210.796,102.316 207.984,102.243 206.329 C 102.170 204.674,102.111 206.133,102.111 209.570 M229.388 204.688 C 229.388 205.439,229.468 205.747,229.566 205.371 C 229.664 204.995,229.664 204.380,229.566 204.004 C 229.468 203.628,229.388 203.936,229.388 204.688 M188.379 205.753 C 189.185 205.838,190.503 205.838,191.309 205.753 C 192.114 205.669,191.455 205.600,189.844 205.600 C 188.232 205.600,187.573 205.669,188.379 205.753 M200.884 205.749 C 201.478 205.839,202.357 205.836,202.837 205.744 C 203.318 205.651,202.832 205.578,201.758 205.580 C 200.684 205.583,200.291 205.659,200.884 205.749 M262.634 212.695 C 262.635 214.414,262.704 215.069,262.787 214.150 C 262.869 213.231,262.868 211.825,262.784 211.025 C 262.700 210.225,262.632 210.977,262.634 212.695 M184.160 212.922 C 184.061 213.083,184.200 213.293,184.470 213.390 C 184.740 213.486,184.857 213.678,184.731 213.816 C 184.604 213.954,184.208 213.744,183.850 213.349 C 183.313 212.755,183.299 212.630,183.770 212.630 C 184.084 212.630,184.259 212.762,184.160 212.922 M105.078 226.953 L 105.078 238.281 106.836 238.281 L 108.594 238.281 108.594 233.462 L 108.594 228.644 110.185 228.581 C 112.089 228.507,113.431 229.124,113.121 229.933 C 112.999 230.250,113.047 230.418,113.227 230.307 C 113.545 230.111,115.413 231.964,115.424 232.487 C 115.427 232.630,115.562 232.879,115.723 233.040 C 116.186 233.504,116.063 234.060,115.565 233.752 C 115.283 233.578,115.220 233.645,115.396 233.930 C 115.552 234.182,115.834 234.292,116.023 234.175 C 116.212 234.058,116.580 234.363,116.841 234.852 C 117.287 235.689,117.272 235.707,116.591 235.156 C 116.127 234.781,115.975 234.752,116.170 235.076 C 116.339 235.357,116.242 235.876,115.952 236.248 C 115.482 236.848,115.498 236.861,116.113 236.378 C 116.489 236.083,116.797 235.963,116.797 236.111 C 116.797 236.643,114.750 239.051,114.454 238.868 C 114.287 238.765,114.175 238.982,114.204 239.350 C 114.234 239.719,114.047 240.024,113.789 240.030 C 113.531 240.035,113.092 240.294,112.813 240.606 C 112.374 241.096,112.398 241.103,112.988 240.656 C 113.854 240.001,113.878 240.531,113.025 241.473 C 112.409 242.154,112.454 242.188,114.002 242.188 C 114.895 242.188,115.625 242.001,115.625 241.774 C 115.625 241.546,115.782 241.457,115.975 241.576 C 116.167 241.695,116.429 241.519,116.558 241.184 C 116.686 240.849,116.949 240.673,117.141 240.791 C 117.333 240.910,117.466 240.701,117.436 240.328 C 117.407 239.954,117.582 239.685,117.825 239.731 C 118.068 239.776,118.244 239.512,118.216 239.145 C 118.131 238.049,119.244 238.386,120.150 239.730 C 120.615 240.420,121.105 240.874,121.240 240.740 C 121.465 240.514,121.639 241.205,121.531 241.895 C 121.505 242.056,122.275 242.188,123.242 242.188 C 124.209 242.188,125.000 242.012,125.000 241.797 C 125.000 241.582,125.000 241.274,125.000 241.113 C 125.000 240.952,124.795 240.820,124.544 240.820 C 124.294 240.820,124.007 240.576,123.908 240.278 C 123.784 239.906,123.897 239.834,124.266 240.047 C 124.584 240.232,124.671 240.214,124.479 240.004 C 124.300 239.808,123.963 239.648,123.730 239.648 C 123.498 239.648,123.226 239.404,123.126 239.106 C 123.006 238.744,123.113 238.666,123.447 238.873 C 123.779 239.078,123.853 239.028,123.666 238.726 C 123.511 238.474,123.233 238.361,123.050 238.475 C 121.792 239.252,120.688 235.254,121.866 234.188 C 122.290 233.804,122.555 233.355,122.454 233.192 C 122.259 232.877,123.408 232.248,123.955 232.370 C 124.132 232.409,124.175 232.277,124.051 232.076 C 123.757 231.600,124.196 230.469,124.674 230.469 C 124.879 230.469,124.921 230.672,124.767 230.920 C 124.593 231.201,124.660 231.265,124.946 231.088 C 125.198 230.933,125.302 230.642,125.179 230.442 C 124.907 230.002,121.484 229.950,121.484 230.386 C 121.484 230.555,120.970 231.302,120.342 232.046 C 119.038 233.589,119.024 233.581,116.946 230.118 L 115.915 228.400 116.844 227.685 C 117.923 226.855,118.530 226.739,118.120 227.441 C 117.963 227.710,118.216 227.595,118.683 227.186 C 119.561 226.415,119.824 225.945,119.141 226.367 C 118.573 226.718,118.661 226.280,119.379 225.185 C 119.725 224.657,119.906 223.960,119.782 223.636 C 119.657 223.312,119.749 223.047,119.984 223.047 C 120.555 223.047,120.050 219.855,119.415 219.451 C 119.157 219.287,119.081 219.150,119.247 219.147 C 119.413 219.143,119.281 218.731,118.953 218.231 C 118.625 217.730,118.489 217.164,118.651 216.974 C 118.813 216.783,118.655 216.849,118.300 217.119 C 117.862 217.453,117.609 217.475,117.514 217.190 C 117.201 216.252,114.197 215.659,109.668 215.642 L 105.078 215.625 105.078 226.953 M335.894 216.130 C 336.065 216.300,337.683 216.387,339.489 216.322 L 342.773 216.205 339.178 216.013 C 337.200 215.907,335.723 215.960,335.894 216.130 M138.184 216.291 C 138.667 216.384,139.458 216.384,139.941 216.291 C 140.425 216.198,140.029 216.122,139.063 216.122 C 138.096 216.122,137.700 216.198,138.184 216.291 M165.925 216.299 C 166.627 216.386,167.682 216.384,168.269 216.295 C 168.856 216.206,168.281 216.134,166.992 216.137 C 165.703 216.139,165.223 216.212,165.925 216.299 M259.473 216.295 C 260.063 216.385,261.030 216.385,261.621 216.295 C 262.212 216.206,261.729 216.133,260.547 216.133 C 259.365 216.133,258.882 216.206,259.473 216.295 M276.270 216.300 C 277.075 216.384,278.394 216.384,279.199 216.300 C 280.005 216.216,279.346 216.147,277.734 216.147 C 276.123 216.147,275.464 216.216,276.270 216.300 M114.891 219.199 C 116.354 219.750,116.909 221.180,116.397 223.080 C 115.841 225.147,114.735 225.779,111.482 225.887 L 108.789 225.977 108.675 222.494 C 108.593 219.970,108.700 218.925,109.066 218.696 C 109.662 218.323,113.429 218.648,114.891 219.199 M77.833 223.242 C 77.837 224.102,77.917 224.407,78.011 223.921 C 78.104 223.435,78.101 222.732,78.003 222.359 C 77.905 221.985,77.829 222.383,77.833 223.242 " fill="#093c7b" fill-rule="evenodd" id="path0" stroke="none"/><path d="M55.432 169.899 C 51.554 171.120,48.943 173.437,48.225 176.297 C 48.081 176.870,47.850 177.268,47.712 177.183 C 47.465 177.030,47.851 229.479,48.109 231.115 C 48.182 231.578,48.365 231.881,48.516 231.788 C 48.911 231.543,49.691 233.146,49.403 233.612 C 49.270 233.827,49.393 233.955,49.678 233.896 C 49.963 233.837,50.147 234.022,50.088 234.306 C 50.029 234.591,50.137 234.727,50.329 234.609 C 50.735 234.357,52.062 235.699,51.733 236.028 C 51.610 236.150,51.830 236.224,52.220 236.191 C 52.623 236.158,52.883 236.357,52.822 236.650 C 52.763 236.935,52.882 237.064,53.086 236.938 C 53.565 236.642,55.504 237.518,55.256 237.918 C 55.153 238.085,65.354 238.242,77.925 238.266 L 100.781 238.309 100.781 235.170 L 100.781 232.031 79.395 232.025 L 58.008 232.018 56.445 231.122 C 55.524 230.593,54.905 229.956,54.936 229.570 C 54.966 229.209,54.834 229.011,54.643 229.129 C 54.453 229.247,54.293 229.113,54.288 228.832 C 54.108 218.108,54.183 188.406,54.390 188.534 C 54.549 188.632,54.581 188.458,54.461 188.147 C 54.121 187.260,55.742 186.368,57.366 186.549 C 58.568 186.683,58.637 186.654,57.813 186.362 C 57.227 186.154,67.855 186.002,84.375 185.982 C 102.689 185.961,111.718 186.079,111.328 186.337 C 110.891 186.625,111.075 186.698,112.054 186.624 C 114.775 186.416,115.011 187.299,115.234 198.563 C 115.457 209.761,115.379 209.475,118.876 211.884 C 119.992 212.652,121.036 213.281,121.195 213.281 C 121.933 213.281,121.488 178.795,120.721 176.573 C 120.315 175.398,120.084 174.272,120.208 174.072 C 120.332 173.871,120.259 173.815,120.046 173.947 C 119.538 174.260,116.690 171.340,117.082 170.909 C 117.247 170.727,117.182 170.693,116.936 170.833 C 116.690 170.974,115.745 170.826,114.836 170.505 C 111.700 169.399,111.328 169.583,111.328 172.240 C 111.328 174.774,110.771 176.747,110.161 176.370 C 109.949 176.239,109.865 176.367,109.975 176.655 C 110.249 177.367,108.015 179.468,107.393 179.084 C 107.061 178.878,107.010 178.947,107.230 179.303 C 107.464 179.682,107.371 179.751,106.880 179.563 C 106.511 179.422,106.304 179.460,106.421 179.648 C 106.684 180.074,105.316 180.457,103.516 180.461 C 101.533 180.466,99.145 179.732,99.464 179.215 C 99.628 178.951,99.550 178.897,99.262 179.075 C 98.677 179.436,97.575 178.572,97.916 178.020 C 98.054 177.797,97.985 177.727,97.761 177.865 C 97.209 178.206,96.345 177.104,96.706 176.519 C 96.903 176.202,96.829 176.154,96.478 176.371 C 96.100 176.605,96.030 176.511,96.218 176.020 C 96.360 175.652,96.322 175.445,96.134 175.561 C 95.657 175.856,95.324 174.393,95.318 171.973 L 95.313 169.922 84.375 169.922 L 73.438 169.922 73.438 172.012 C 73.438 174.312,72.778 176.684,72.232 176.346 C 72.041 176.228,71.980 176.380,72.096 176.685 C 72.346 177.337,70.299 179.175,68.470 179.942 C 66.415 180.803,61.396 180.525,61.979 179.583 C 62.123 179.349,62.041 179.293,61.787 179.450 C 61.213 179.805,59.672 178.984,59.979 178.486 C 60.108 178.277,59.982 178.154,59.697 178.213 C 59.412 178.272,59.224 178.101,59.277 177.832 C 59.331 177.563,59.155 177.388,58.887 177.441 C 58.618 177.495,58.423 177.233,58.452 176.860 C 58.481 176.486,58.359 176.271,58.180 176.381 C 57.317 176.915,56.675 171.318,57.436 169.896 C 57.658 169.481,57.790 169.157,57.729 169.176 C 57.667 169.196,56.634 169.521,55.432 169.899 M62.212 186.608 C 62.806 186.698,63.685 186.696,64.166 186.603 C 64.646 186.510,64.160 186.437,63.086 186.440 C 62.012 186.443,61.619 186.519,62.212 186.608 M53.808 217.676 C 53.747 222.886,53.696 218.623,53.696 208.203 C 53.696 197.783,53.747 193.521,53.808 198.730 C 53.870 203.940,53.870 212.466,53.808 217.676 M121.981 191.797 C 121.981 192.764,122.058 193.159,122.151 192.676 C 122.244 192.192,122.244 191.401,122.151 190.918 C 122.058 190.435,121.981 190.830,121.981 191.797 M78.125 197.419 C 78.125 202.186,78.031 203.078,77.507 203.279 C 76.427 203.693,66.536 203.546,67.188 203.125 C 67.673 202.811,67.640 202.745,66.992 202.740 C 66.238 202.734,66.215 202.953,66.327 209.179 L 66.443 215.625 72.284 215.625 L 78.125 215.625 78.125 221.680 L 78.125 227.734 84.375 227.734 L 90.625 227.734 90.625 221.680 L 90.625 215.625 96.289 215.625 L 101.953 215.625 101.953 209.581 L 101.953 203.537 96.387 203.429 L 90.820 203.320 90.712 197.559 L 90.604 191.797 84.365 191.797 L 78.125 191.797 78.125 197.419 M121.966 201.172 C 121.966 201.924,122.046 202.231,122.144 201.855 C 122.243 201.479,122.243 200.864,122.144 200.488 C 122.046 200.112,121.966 200.420,121.966 201.172 M102.461 205.859 C 102.461 207.041,102.534 207.524,102.624 206.934 C 102.713 206.343,102.713 205.376,102.624 204.785 C 102.534 204.194,102.461 204.678,102.461 205.859 M71.011 216.305 C 72.363 216.382,74.472 216.381,75.699 216.304 C 76.926 216.227,75.820 216.164,73.242 216.165 C 70.664 216.166,69.660 216.229,71.011 216.305 M92.285 216.300 C 93.091 216.384,94.409 216.384,95.215 216.300 C 96.021 216.216,95.361 216.147,93.750 216.147 C 92.139 216.147,91.479 216.216,92.285 216.300 M64.941 231.519 C 65.317 231.618,65.933 231.618,66.309 231.519 C 66.685 231.421,66.377 231.341,65.625 231.341 C 64.873 231.341,64.565 231.421,64.941 231.519 M70.605 231.538 C 71.733 231.617,73.579 231.617,74.707 231.538 C 75.835 231.459,74.912 231.395,72.656 231.395 C 70.400 231.395,69.478 231.459,70.605 231.538 M78.613 231.537 C 79.634 231.618,81.304 231.618,82.324 231.537 C 83.345 231.457,82.510 231.391,80.469 231.391 C 78.428 231.391,77.593 231.457,78.613 231.537 M85.063 231.526 C 85.549 231.620,86.252 231.616,86.626 231.518 C 86.999 231.421,86.602 231.344,85.742 231.349 C 84.883 231.353,84.577 231.433,85.063 231.526 M90.527 231.541 C 92.300 231.613,95.200 231.613,96.973 231.541 C 98.745 231.468,97.295 231.409,93.750 231.409 C 90.205 231.409,88.755 231.468,90.527 231.541 M67.285 238.964 C 72.388 239.026,80.737 239.026,85.840 238.964 C 90.942 238.903,86.768 238.852,76.563 238.852 C 66.357 238.852,62.183 238.903,67.285 238.964 " fill="#4e95dc" fill-rule="evenodd" id="path1" stroke="none"/><path d="M105.775 162.921 C 106.028 163.260,106.411 164.227,106.627 165.070 L 107.019 166.602 106.843 165.066 C 106.746 164.222,106.363 163.255,105.992 162.918 C 105.378 162.360,105.358 162.361,105.775 162.921 M61.732 163.646 C 60.853 165.290,61.229 174.795,62.207 175.623 C 63.085 176.366,63.085 176.366,62.402 175.555 C 61.609 174.613,61.385 165.026,62.123 163.646 C 62.346 163.231,62.440 162.891,62.332 162.891 C 62.225 162.891,61.955 163.231,61.732 163.646 M99.700 167.578 C 99.700 168.330,99.780 168.638,99.879 168.262 C 99.977 167.886,99.977 167.271,99.879 166.895 C 99.780 166.519,99.700 166.826,99.700 167.578 M106.758 168.750 C 106.758 169.932,106.831 170.415,106.920 169.824 C 107.010 169.233,107.010 168.267,106.920 167.676 C 106.831 167.085,106.758 167.568,106.758 168.750 M99.726 172.266 C 99.726 173.447,99.800 173.931,99.889 173.340 C 99.979 172.749,99.979 171.782,99.889 171.191 C 99.800 170.601,99.726 171.084,99.726 172.266 M101.914 176.679 C 102.096 176.861,102.838 176.949,103.564 176.874 C 104.850 176.742,104.842 176.734,103.233 176.543 C 102.325 176.436,101.732 176.497,101.914 176.679 M64.551 176.832 C 64.927 176.930,65.542 176.930,65.918 176.832 C 66.294 176.734,65.986 176.653,65.234 176.653 C 64.482 176.653,64.175 176.734,64.551 176.832 M279.732 182.208 C 280.078 182.648,280.556 183.359,280.794 183.789 C 281.032 184.219,281.232 184.353,281.238 184.088 C 281.245 183.823,280.767 183.111,280.176 182.507 C 279.585 181.902,279.385 181.768,279.732 182.208 M139.355 182.323 C 141.558 182.392,145.161 182.392,147.363 182.323 C 149.565 182.253,147.764 182.196,143.359 182.196 C 138.955 182.196,137.153 182.253,139.355 182.323 M313.281 182.324 C 313.281 182.485,314.921 182.557,316.925 182.484 L 320.570 182.351 324.250 188.629 C 326.274 192.082,328.042 194.911,328.180 194.915 C 328.407 194.921,323.888 187.050,321.625 183.496 L 320.692 182.031 316.987 182.031 C 314.949 182.031,313.281 182.163,313.281 182.324 M339.160 182.322 C 342.606 182.453,342.981 182.613,342.090 183.573 C 341.704 183.989,341.703 184.042,342.088 183.825 C 344.256 182.601,343.416 182.031,339.565 182.112 L 335.742 182.192 339.160 182.322 M154.297 183.398 C 154.834 183.705,155.449 183.957,155.664 183.957 C 155.879 183.957,155.615 183.705,155.078 183.398 C 154.541 183.091,153.926 182.840,153.711 182.840 C 153.496 182.840,153.760 183.091,154.297 183.398 M273.528 184.766 C 273.528 185.518,273.609 185.825,273.707 185.449 C 273.805 185.073,273.805 184.458,273.707 184.082 C 273.609 183.706,273.528 184.014,273.528 184.766 M332.874 187.461 C 331.589 189.589,330.238 191.786,329.872 192.344 C 329.506 192.903,329.304 193.359,329.424 193.359 C 329.611 193.359,331.185 190.894,334.722 185.059 C 335.211 184.253,335.521 183.594,335.410 183.594 C 335.300 183.594,334.159 185.334,332.874 187.461 M157.282 185.157 C 160.495 188.734,161.260 192.938,159.591 197.852 C 159.445 198.281,159.636 198.105,160.016 197.461 C 161.899 194.266,160.525 187.799,157.361 184.962 L 156.055 183.791 157.282 185.157 M339.557 187.402 C 337.137 191.209,337.023 191.406,337.247 191.406 C 337.347 191.406,338.176 190.220,339.089 188.770 C 340.001 187.319,341.004 185.737,341.317 185.254 C 341.630 184.771,341.796 184.375,341.684 184.375 C 341.573 184.375,340.615 185.737,339.557 187.402 M315.459 185.840 C 315.847 186.431,316.853 188.013,317.696 189.355 C 318.539 190.698,319.307 191.797,319.403 191.797 C 319.617 191.797,319.492 191.581,317.084 187.793 C 316.025 186.128,315.068 184.766,314.957 184.766 C 314.845 184.766,315.071 185.249,315.459 185.840 M148.861 187.249 C 148.950 187.325,149.639 187.501,150.391 187.639 C 151.353 187.815,151.584 187.776,151.172 187.505 C 150.642 187.158,148.473 186.917,148.861 187.249 M141.564 193.555 C 141.565 196.992,141.625 198.346,141.697 196.563 C 141.770 194.781,141.769 191.968,141.696 190.313 C 141.623 188.659,141.564 190.117,141.564 193.555 M275.586 188.107 C 276.412 188.763,278.690 188.654,279.421 187.923 C 279.649 187.694,279.226 187.715,278.384 187.973 C 277.316 188.301,276.691 188.295,275.883 187.949 C 274.860 187.511,274.845 187.519,275.586 188.107 M152.830 188.976 C 154.028 190.445,154.485 192.326,154.154 194.434 C 153.991 195.478,154.026 195.674,154.279 195.117 C 155.179 193.130,154.422 189.937,152.704 188.477 C 151.894 187.787,151.909 187.846,152.830 188.976 M176.926 190.510 C 177.828 190.602,178.541 190.905,178.647 191.240 C 178.762 191.607,178.805 191.564,178.765 191.121 C 178.718 190.585,178.332 190.421,177.045 190.391 L 175.385 190.353 176.926 190.510 M191.504 190.514 C 192.095 190.604,193.062 190.604,193.652 190.514 C 194.243 190.425,193.760 190.351,192.578 190.351 C 191.396 190.351,190.913 190.425,191.504 190.514 M213.281 190.609 C 212.744 190.773,213.799 190.820,215.625 190.713 C 217.451 190.607,219.019 190.456,219.108 190.377 C 219.416 190.107,214.257 190.313,213.281 190.609 M240.918 190.517 C 241.616 190.604,242.759 190.604,243.457 190.517 C 244.155 190.430,243.584 190.359,242.188 190.359 C 240.791 190.359,240.220 190.430,240.918 190.517 M269.418 190.520 L 271.063 190.668 271.194 193.869 L 271.325 197.070 271.405 193.652 L 271.484 190.234 269.629 190.303 L 267.773 190.371 269.418 190.520 M164.063 203.320 L 164.063 216.016 166.992 216.016 L 169.922 216.016 169.835 209.473 L 169.747 202.930 169.630 209.277 L 169.512 215.625 166.983 215.625 L 164.453 215.625 164.453 203.333 C 164.453 191.802,164.496 191.054,165.137 191.260 C 165.714 191.446,165.729 191.414,165.234 191.058 C 164.912 190.827,164.517 190.634,164.355 190.631 C 164.194 190.628,164.063 196.338,164.063 203.320 M169.652 192.773 C 169.654 194.063,169.727 194.543,169.814 193.841 C 169.901 193.139,169.899 192.084,169.810 191.497 C 169.721 190.910,169.650 191.484,169.652 192.773 M172.850 191.850 C 172.083 192.524,171.269 193.447,171.042 193.901 C 170.815 194.355,171.305 193.995,172.131 193.101 C 172.957 192.206,173.984 191.289,174.414 191.062 C 174.844 190.835,174.982 190.643,174.721 190.637 C 174.460 190.630,173.618 191.176,172.850 191.850 M265.756 191.430 C 265.077 191.865,264.219 192.697,263.850 193.279 C 263.277 194.183,263.400 194.131,264.695 192.922 C 265.529 192.144,266.563 191.314,266.992 191.078 C 267.422 190.842,267.598 190.646,267.383 190.643 C 267.168 190.641,266.436 190.994,265.756 191.430 M285.547 208.648 L 285.547 226.563 288.672 226.563 L 291.797 226.563 291.710 220.020 L 291.622 213.477 291.505 219.824 L 291.387 226.172 288.662 226.172 L 285.938 226.172 285.938 208.816 L 285.938 191.461 286.816 191.324 C 287.619 191.199,287.602 191.168,286.621 190.960 L 285.547 190.733 285.547 208.648 M295.605 191.239 C 294.091 192.061,294.262 192.344,295.801 191.562 C 297.273 190.813,297.534 190.619,297.038 190.641 C 296.841 190.649,296.196 190.919,295.605 191.239 M185.865 192.149 C 184.882 192.773,183.939 193.520,183.769 193.809 C 183.593 194.109,183.783 194.054,184.210 193.683 C 184.623 193.324,185.752 192.579,186.719 192.028 C 187.686 191.476,188.291 191.023,188.065 191.020 C 187.838 191.018,186.849 191.526,185.865 192.149 M274.219 203.516 L 274.219 216.016 277.344 216.016 L 280.469 216.016 280.377 203.418 L 280.285 190.820 280.176 203.223 L 280.067 215.625 277.328 215.625 L 274.588 215.625 274.696 203.320 C 274.756 196.552,274.673 191.015,274.512 191.015 C 274.351 191.016,274.219 196.641,274.219 203.516 M291.513 192.578 C 291.513 193.545,291.589 193.940,291.682 193.457 C 291.775 192.974,291.775 192.183,291.682 191.699 C 291.589 191.216,291.513 191.611,291.513 192.578 M304.492 191.665 C 305.137 192.004,306.102 192.657,306.638 193.114 L 307.612 193.945 306.834 193.026 C 306.077 192.132,304.261 191.000,303.633 191.031 C 303.461 191.040,303.848 191.325,304.492 191.665 M209.026 192.930 C 208.358 193.553,207.813 194.203,207.813 194.374 C 207.813 194.545,208.428 194.088,209.180 193.359 C 209.932 192.631,210.547 191.981,210.547 191.916 C 210.547 191.616,210.149 191.881,209.026 192.930 M248.633 192.048 C 250.622 193.813,251.354 194.327,250.588 193.421 C 250.162 192.918,249.460 192.325,249.028 192.104 C 248.596 191.882,248.418 191.857,248.633 192.048 M320.684 194.049 C 321.376 195.174,322.026 196.094,322.129 196.094 C 322.435 196.094,320.581 192.963,319.980 192.464 C 319.675 192.211,319.992 192.924,320.684 194.049 M199.825 193.076 C 199.967 193.447,200.233 193.750,200.416 193.750 C 200.599 193.750,201.212 194.541,201.778 195.508 C 203.053 197.682,203.505 197.853,202.297 195.704 C 201.325 193.974,199.373 191.899,199.825 193.076 M232.846 194.391 C 231.968 195.388,231.250 196.394,231.250 196.626 C 231.250 196.859,231.540 196.614,231.895 196.083 C 232.250 195.552,233.075 194.546,233.729 193.848 C 234.384 193.149,234.811 192.578,234.680 192.578 C 234.549 192.578,233.723 193.394,232.846 194.391 M225.387 194.442 C 225.624 194.930,225.711 195.501,225.581 195.711 C 225.451 195.922,225.531 196.094,225.758 196.094 C 226.362 196.094,226.264 195.186,225.564 194.313 C 224.982 193.586,224.975 193.591,225.387 194.442 M256.732 204.785 L 256.641 216.016 259.570 216.016 L 262.500 216.016 262.412 209.082 L 262.324 202.148 262.208 208.887 L 262.091 215.625 259.567 215.625 L 257.043 215.625 256.933 204.590 L 256.823 193.555 256.732 204.785 M307.813 193.908 C 307.813 194.054,308.186 194.677,308.642 195.295 C 309.099 195.912,309.796 197.355,310.192 198.502 C 310.588 199.648,310.914 200.234,310.916 199.805 C 310.921 198.823,309.640 195.967,308.601 194.647 C 308.167 194.096,307.813 193.763,307.813 193.908 M334.457 195.214 C 333.966 195.968,333.638 196.659,333.729 196.750 C 333.821 196.841,334.287 196.282,334.766 195.508 C 335.896 193.679,335.626 193.423,334.457 195.214 M251.727 195.302 C 252.529 196.558,252.506 196.771,251.533 197.080 C 251.087 197.221,250.808 197.423,250.914 197.528 C 251.975 198.589,252.941 196.414,251.922 195.258 L 251.109 194.336 251.727 195.302 M191.509 195.202 C 192.103 195.292,192.982 195.290,193.462 195.197 C 193.943 195.104,193.457 195.031,192.383 195.034 C 191.309 195.037,190.916 195.112,191.509 195.202 M215.728 195.202 C 216.322 195.292,217.201 195.290,217.681 195.197 C 218.162 195.104,217.676 195.031,216.602 195.034 C 215.527 195.037,215.134 195.112,215.728 195.202 M213.184 195.856 C 212.140 196.648,212.264 199.068,213.379 199.652 C 214.232 200.100,214.238 200.091,213.574 199.342 C 212.619 198.265,212.705 196.658,213.759 195.921 C 214.236 195.586,214.456 195.318,214.247 195.325 C 214.038 195.332,213.560 195.571,213.184 195.856 M219.619 195.921 C 220.205 196.239,220.870 196.847,221.098 197.273 C 221.597 198.207,221.885 198.233,222.875 197.436 C 223.623 196.832,223.623 196.829,222.864 197.206 C 222.251 197.510,221.832 197.356,220.800 196.450 C 220.087 195.824,219.290 195.320,219.029 195.328 C 218.768 195.337,219.034 195.604,219.619 195.921 M241.119 195.593 C 241.712 195.683,242.591 195.680,243.072 195.587 C 243.552 195.495,243.066 195.421,241.992 195.424 C 240.918 195.427,240.525 195.503,241.119 195.593 M296.158 195.655 C 295.851 195.850,296.411 195.915,297.526 195.813 C 300.028 195.585,302.578 196.901,303.802 199.053 C 304.282 199.896,304.678 200.392,304.681 200.155 C 304.721 197.508,298.455 194.199,296.158 195.655 M196.286 196.909 C 196.929 197.642,197.602 198.418,197.781 198.633 C 197.960 198.848,197.905 198.584,197.659 198.047 C 197.413 197.510,196.741 196.734,196.165 196.323 C 195.137 195.590,195.139 195.601,196.286 196.909 M206.891 196.567 C 206.759 197.058,206.670 197.988,206.692 198.633 C 206.720 199.441,206.833 199.203,207.057 197.864 C 207.398 195.823,207.299 195.045,206.891 196.567 M245.172 196.454 C 245.846 196.865,246.491 197.436,246.606 197.722 C 246.738 198.053,246.825 198.075,246.844 197.782 C 246.879 197.257,245.037 195.702,244.381 195.705 C 244.141 195.705,244.497 196.043,245.172 196.454 M175.298 196.761 C 175.783 196.854,176.487 196.851,176.860 196.753 C 177.233 196.655,176.836 196.579,175.977 196.583 C 175.117 196.587,174.812 196.667,175.298 196.761 M293.450 197.559 C 292.439 199.019,292.110 199.609,292.308 199.609 C 292.399 199.609,292.940 198.906,293.508 198.047 C 294.664 196.300,294.614 195.878,293.450 197.559 M152.685 197.521 C 152.390 197.876,151.621 198.396,150.977 198.677 C 150.270 198.985,150.074 199.194,150.482 199.203 C 151.090 199.217,154.056 196.914,153.466 196.886 C 153.331 196.880,152.979 197.166,152.685 197.521 M171.525 198.646 C 170.858 199.406,170.313 200.144,170.313 200.287 C 170.313 200.430,170.446 200.380,170.608 200.176 C 170.771 199.972,171.419 199.233,172.049 198.535 C 172.678 197.837,173.090 197.266,172.965 197.266 C 172.840 197.266,172.192 197.887,171.525 198.646 M264.189 198.145 C 263.754 198.628,263.258 199.287,263.087 199.609 C 262.757 200.231,262.847 200.146,264.429 198.340 C 264.947 197.749,265.283 197.266,265.175 197.266 C 265.068 197.266,264.624 197.661,264.189 198.145 M203.392 199.609 C 203.520 200.576,203.688 201.440,203.765 201.530 C 204.059 201.869,203.836 199.379,203.505 198.633 C 203.274 198.111,203.237 198.436,203.392 199.609 M180.664 199.609 C 180.516 200.285,180.476 200.919,180.575 201.018 C 180.675 201.118,180.869 200.637,181.006 199.951 C 181.332 198.323,181.016 198.007,180.664 199.609 M157.341 200.821 C 156.330 201.874,155.576 202.734,155.667 202.734 C 156.023 202.734,158.646 200.243,159.013 199.556 C 159.548 198.556,159.438 198.640,157.341 200.821 M333.198 200.293 C 333.652 201.099,334.387 202.197,334.831 202.734 L 335.640 203.711 334.956 202.573 C 334.581 201.947,333.927 200.848,333.504 200.131 C 332.446 198.338,332.176 198.480,333.198 200.293 M144.824 199.505 C 145.737 199.587,147.231 199.587,148.145 199.505 C 149.058 199.423,148.311 199.355,146.484 199.355 C 144.658 199.355,143.911 199.423,144.824 199.505 M207.031 200.182 C 207.031 200.590,208.600 203.125,208.853 203.125 C 208.960 203.125,208.652 202.466,208.167 201.660 C 207.088 199.865,207.031 199.792,207.031 200.182 M322.513 201.270 L 321.810 202.539 322.615 201.563 C 323.329 200.696,323.646 200.000,323.326 200.000 C 323.265 200.000,322.899 200.571,322.513 201.270 M229.824 203.906 C 229.824 205.732,229.891 206.479,229.974 205.566 C 230.056 204.653,230.056 203.159,229.974 202.246 C 229.891 201.333,229.824 202.080,229.824 203.906 M304.715 201.790 C 304.730 202.417,304.898 203.281,305.088 203.711 C 305.319 204.233,305.357 203.908,305.202 202.734 C 304.928 200.664,304.676 200.175,304.715 201.790 M311.069 203.516 C 311.069 205.127,311.138 205.786,311.222 204.980 C 311.306 204.175,311.306 202.856,311.222 202.051 C 311.138 201.245,311.069 201.904,311.069 203.516 M189.569 201.463 C 191.243 201.536,193.880 201.536,195.428 201.462 C 196.976 201.388,195.605 201.328,192.383 201.328 C 189.160 201.329,187.894 201.389,189.569 201.463 M180.268 204.102 C 180.404 206.692,181.121 210.025,181.467 209.679 C 181.555 209.591,181.443 208.915,181.218 208.177 C 180.993 207.440,180.655 205.605,180.467 204.102 L 180.125 201.367 180.268 204.102 M291.527 203.711 C 291.529 205.000,291.602 205.480,291.689 204.778 C 291.776 204.076,291.774 203.021,291.685 202.434 C 291.596 201.847,291.525 202.422,291.527 203.711 M224.212 203.516 C 224.551 203.838,225.131 204.536,225.500 205.067 C 225.870 205.599,226.168 205.862,226.163 205.653 C 226.152 205.177,225.001 203.799,224.200 203.303 C 223.680 202.981,223.681 203.011,224.212 203.516 M317.427 209.120 C 315.147 212.632,313.281 215.621,313.281 215.761 C 313.281 215.901,314.851 216.016,316.770 216.016 C 320.474 216.016,320.764 215.865,322.035 213.281 C 322.339 212.664,321.389 213.766,320.588 214.961 C 320.187 215.559,319.646 215.646,316.959 215.547 L 313.801 215.430 317.462 209.766 C 321.521 203.485,321.977 202.734,321.738 202.734 C 321.647 202.734,319.708 205.608,317.427 209.120 M153.439 203.331 C 153.326 203.445,152.462 203.689,151.519 203.875 C 150.155 204.142,150.044 204.216,150.977 204.236 C 152.060 204.260,155.016 203.228,154.069 203.157 C 153.836 203.139,153.553 203.218,153.439 203.331 M210.102 203.883 C 210.609 204.326,211.210 204.688,211.437 204.688 C 211.917 204.688,211.894 204.668,210.352 203.765 L 209.180 203.079 210.102 203.883 M235.574 204.720 C 235.589 205.454,235.754 206.406,235.940 206.836 C 236.158 207.339,236.198 206.921,236.053 205.664 C 235.785 203.342,235.536 202.851,235.574 204.720 M141.667 204.167 C 141.523 204.310,141.406 206.940,141.406 210.010 L 141.406 215.593 138.184 215.725 L 134.961 215.857 138.379 215.936 L 141.797 216.016 141.797 210.179 L 141.797 204.342 143.457 204.192 L 145.117 204.043 143.522 203.974 C 142.645 203.937,141.810 204.023,141.667 204.167 M335.793 204.395 C 335.954 204.663,337.638 207.317,339.536 210.292 L 342.986 215.701 339.303 215.565 C 337.278 215.491,335.702 215.562,335.802 215.723 C 336.057 216.134,343.359 216.091,343.359 215.678 C 343.359 215.492,343.041 214.921,342.652 214.408 C 342.263 213.896,340.571 211.323,338.892 208.691 C 337.213 206.060,335.763 203.906,335.670 203.906 C 335.577 203.906,335.632 204.126,335.793 204.395 M195.313 205.078 L 186.523 205.296 195.192 205.382 C 200.644 205.437,203.950 205.324,204.102 205.078 C 204.234 204.863,204.289 204.726,204.222 204.774 C 204.156 204.821,200.146 204.958,195.313 205.078 M304.746 205.534 C 304.714 206.108,304.586 206.899,304.463 207.292 C 304.250 207.969,304.262 207.970,304.683 207.314 C 304.928 206.933,305.055 206.142,304.966 205.556 L 304.805 204.492 304.746 205.534 M216.406 206.029 C 216.406 206.130,216.978 206.378,217.676 206.580 C 218.374 206.782,219.297 207.065,219.727 207.209 C 220.211 207.372,220.136 207.260,219.531 206.915 C 218.479 206.315,216.406 205.727,216.406 206.029 M324.540 208.691 C 322.328 212.235,322.179 212.500,322.397 212.500 C 322.495 212.500,323.358 211.226,324.315 209.668 C 326.501 206.110,326.642 205.859,326.458 205.859 C 326.376 205.859,325.513 207.134,324.540 208.691 M291.812 206.671 C 291.792 207.476,294.088 210.938,294.641 210.938 C 294.876 210.938,294.605 210.454,294.040 209.863 C 293.474 209.272,292.745 208.174,292.420 207.422 C 292.094 206.670,291.821 206.332,291.812 206.671 M330.192 206.543 C 331.186 208.360,335.281 214.844,335.434 214.844 C 335.546 214.844,335.385 214.448,335.076 213.965 C 334.768 213.481,333.593 211.548,332.466 209.668 C 331.339 207.788,330.330 206.250,330.224 206.250 C 330.118 206.250,330.104 206.382,330.192 206.543 M310.259 208.321 C 309.697 210.425,307.791 213.006,305.525 214.735 C 304.601 215.439,303.991 216.011,304.169 216.005 C 306.205 215.936,311.477 208.844,310.862 207.000 C 310.786 206.772,310.515 207.366,310.259 208.321 M186.720 207.650 C 186.722 208.088,188.196 210.547,188.458 210.547 C 188.561 210.547,188.268 209.888,187.807 209.082 C 186.774 207.278,186.718 207.205,186.720 207.650 M236.328 208.095 C 236.328 208.322,236.690 208.922,237.133 209.429 L 237.937 210.352 237.251 209.180 C 236.348 207.637,236.328 207.614,236.328 208.095 M250.518 209.415 C 252.546 210.462,252.738 210.662,252.276 211.252 C 251.810 211.847,251.827 211.860,252.441 211.378 C 253.449 210.588,253.332 210.421,250.968 209.261 C 248.041 207.825,247.678 207.950,250.518 209.415 M302.733 209.756 C 301.156 211.485,299.124 212.063,296.806 211.445 C 295.998 211.229,295.426 211.196,295.534 211.371 C 296.696 213.250,302.526 211.564,303.929 208.942 C 304.478 207.916,304.303 208.035,302.733 209.756 M208.935 209.277 C 208.455 209.889,208.467 209.907,209.047 209.454 C 209.600 209.022,209.888 209.114,211.000 210.080 C 212.490 211.374,213.779 212.113,214.525 212.101 C 214.808 212.096,214.336 211.768,213.477 211.371 C 212.617 210.974,211.488 210.187,210.967 209.622 C 209.849 208.408,209.643 208.374,208.935 209.277 M198.388 209.634 C 198.093 209.991,197.324 210.605,196.680 210.999 C 196.035 211.393,195.711 211.716,195.959 211.717 C 196.207 211.718,197.147 211.104,198.047 210.352 C 198.947 209.600,199.512 208.984,199.304 208.984 C 199.095 208.984,198.683 209.277,198.388 209.634 M246.643 209.819 C 246.233 210.278,245.371 210.886,244.727 211.171 C 243.991 211.495,243.812 211.694,244.244 211.703 C 244.851 211.717,248.210 209.022,247.619 208.995 C 247.491 208.989,247.052 209.360,246.643 209.819 M220.220 210.750 C 219.765 211.358,218.862 211.792,217.485 212.065 L 215.430 212.473 217.277 212.300 C 219.243 212.115,220.554 211.499,220.900 210.597 C 221.241 209.707,220.950 209.773,220.220 210.750 M226.217 210.222 C 226.192 210.580,226.071 211.196,225.947 211.589 C 225.734 212.267,225.746 212.268,226.169 211.609 C 226.414 211.226,226.536 210.611,226.439 210.242 C 226.280 209.637,226.258 209.635,226.217 210.222 M230.859 210.049 C 230.859 210.739,233.298 213.728,234.375 214.358 C 235.151 214.812,235.120 214.745,234.223 214.033 C 233.602 213.540,232.591 212.344,231.977 211.375 C 231.362 210.406,230.859 209.809,230.859 210.049 M182.031 211.133 C 182.031 211.655,185.050 214.573,186.103 215.070 C 186.764 215.381,186.953 215.414,186.523 215.142 C 186.094 214.871,184.907 213.814,183.887 212.794 C 182.866 211.774,182.031 211.027,182.031 211.133 M240.234 211.698 C 240.557 211.918,241.333 212.100,241.960 212.103 C 243.461 212.111,243.149 211.885,241.211 211.561 C 240.091 211.373,239.815 211.412,240.234 211.698 M201.733 213.379 L 200.586 214.648 201.855 213.501 C 202.554 212.870,203.125 212.299,203.125 212.232 C 203.125 211.930,202.803 212.196,201.733 213.379 M224.198 213.929 C 223.308 214.873,223.162 215.150,223.766 214.746 C 224.587 214.197,226.036 212.500,225.685 212.500 C 225.607 212.500,224.938 213.143,224.198 213.929 M250.953 213.319 C 250.807 213.555,249.884 214.258,248.900 214.882 C 247.917 215.505,247.296 216.016,247.521 216.016 C 248.002 216.016,250.978 213.911,251.351 213.307 C 251.493 213.078,251.521 212.891,251.413 212.891 C 251.306 212.891,251.099 213.084,250.953 213.319 M292.947 214.577 C 293.571 215.380,295.409 216.414,296.172 216.391 C 296.451 216.383,296.070 216.111,295.324 215.788 C 294.579 215.464,293.615 214.900,293.182 214.533 C 292.433 213.898,292.422 213.900,292.947 214.577 M199.023 215.261 C 198.379 215.674,198.052 216.012,198.297 216.014 C 198.541 216.015,199.157 215.670,199.664 215.247 C 200.825 214.280,200.546 214.286,199.023 215.261 M235.547 215.015 C 235.547 215.374,237.836 216.407,238.555 216.373 C 239.022 216.350,238.923 216.238,238.258 216.036 C 237.709 215.869,236.874 215.526,236.403 215.274 C 235.932 215.022,235.547 214.906,235.547 215.015 M104.688 226.953 L 104.688 238.672 106.836 238.672 L 108.984 238.672 108.901 234.082 L 108.817 229.492 108.693 233.887 L 108.568 238.281 106.823 238.281 L 105.078 238.281 105.078 226.977 L 105.078 215.672 106.543 215.519 L 108.008 215.366 106.348 215.300 L 104.688 215.234 104.688 226.953 M110.069 215.521 C 110.988 215.603,112.394 215.602,113.194 215.518 C 113.994 215.434,113.242 215.367,111.523 215.368 C 109.805 215.370,109.150 215.438,110.069 215.521 M244.727 216.406 C 243.663 216.677,243.645 216.706,244.531 216.723 C 245.068 216.734,245.859 216.591,246.289 216.406 C 247.252 215.992,246.353 215.992,244.727 216.406 M301.172 216.406 C 299.837 216.687,299.832 216.695,300.977 216.718 C 301.621 216.731,302.500 216.591,302.930 216.406 C 303.869 216.003,303.090 216.003,301.172 216.406 M190.527 216.682 C 191.011 216.775,191.802 216.775,192.285 216.682 C 192.769 216.589,192.373 216.513,191.406 216.513 C 190.439 216.513,190.044 216.589,190.527 216.682 M194.238 216.676 C 194.614 216.774,195.229 216.774,195.605 216.676 C 195.981 216.577,195.674 216.497,194.922 216.497 C 194.170 216.497,193.862 216.577,194.238 216.676 M214.953 216.694 C 215.980 216.775,217.562 216.774,218.469 216.692 C 219.375 216.610,218.535 216.544,216.602 216.545 C 214.668 216.546,213.926 216.613,214.953 216.694 M297.363 216.676 C 297.739 216.774,298.354 216.774,298.730 216.676 C 299.106 216.577,298.799 216.497,298.047 216.497 C 297.295 216.497,296.987 216.577,297.363 216.676 M118.769 217.866 C 119.265 218.562,119.762 219.040,119.873 218.929 C 119.985 218.817,119.579 218.248,118.971 217.664 L 117.866 216.602 118.769 217.866 M111.953 219.106 C 113.479 219.233,114.981 219.512,115.292 219.727 C 115.603 219.941,115.522 219.810,115.112 219.434 C 114.540 218.909,113.762 218.765,111.773 218.813 L 109.180 218.876 111.953 219.106 M108.725 222.266 C 108.725 223.877,108.794 224.536,108.878 223.730 C 108.963 222.925,108.963 221.606,108.878 220.801 C 108.794 219.995,108.725 220.654,108.725 222.266 M120.197 221.289 C 120.321 222.363,120.486 223.315,120.563 223.405 C 120.855 223.744,120.633 220.863,120.310 220.117 C 120.092 219.615,120.052 220.033,120.197 221.289 M118.580 226.465 C 117.736 227.544,117.669 227.725,118.324 227.153 C 119.107 226.469,120.140 225.000,119.838 225.000 C 119.777 225.000,119.211 225.659,118.580 226.465 M110.449 225.673 C 111.147 225.760,112.290 225.760,112.988 225.673 C 113.687 225.587,113.115 225.516,111.719 225.516 C 110.322 225.516,109.751 225.587,110.449 225.673 M110.059 229.182 C 110.542 229.275,111.333 229.275,111.816 229.182 C 112.300 229.089,111.904 229.013,110.938 229.013 C 109.971 229.013,109.575 229.089,110.059 229.182 M116.747 229.492 C 116.958 229.922,117.417 230.625,117.766 231.055 L 118.402 231.836 118.019 231.055 C 117.808 230.625,117.349 229.922,116.999 229.492 L 116.363 228.711 116.747 229.492 M121.243 229.785 C 119.868 232.117,119.846 232.210,120.950 230.976 C 121.707 230.132,122.514 229.677,123.438 229.574 C 124.745 229.429,124.733 229.419,123.168 229.359 C 122.211 229.323,121.411 229.500,121.243 229.785 M123.569 232.129 C 121.968 234.395,121.581 235.208,122.777 233.789 C 123.822 232.550,125.148 230.469,124.893 230.469 C 124.810 230.469,124.214 231.216,123.569 232.129 M121.119 235.601 C 121.105 235.953,121.401 236.577,121.777 236.987 C 122.153 237.397,122.336 237.539,122.184 237.302 C 122.031 237.066,121.735 236.442,121.525 235.916 C 121.284 235.312,121.134 235.196,121.119 235.601 M115.576 237.207 C 115.090 237.905,114.243 239.083,113.694 239.824 C 113.145 240.565,112.883 241.058,113.112 240.919 C 113.606 240.620,116.935 235.938,116.653 235.938 C 116.547 235.938,116.062 236.509,115.576 237.207 M123.438 239.453 C 123.896 240.098,124.360 240.625,124.467 240.625 C 124.575 240.625,124.287 240.098,123.828 239.453 C 123.369 238.809,122.906 238.281,122.798 238.281 C 122.691 238.281,122.979 238.809,123.438 239.453 M116.619 241.238 C 116.041 242.121,115.729 242.230,114.045 242.141 C 112.990 242.085,112.006 242.160,111.858 242.309 C 111.710 242.457,112.557 242.578,113.742 242.578 C 115.852 242.578,116.473 242.258,117.346 240.723 C 117.863 239.815,117.282 240.227,116.619 241.238 M120.798 241.406 C 121.296 242.242,121.709 242.400,123.668 242.503 C 124.926 242.568,125.823 242.489,125.660 242.327 C 125.498 242.165,124.548 242.082,123.550 242.144 C 122.045 242.236,121.604 242.099,120.975 241.342 L 120.217 240.430 120.798 241.406 " fill="#040e25" fill-rule="evenodd" id="path2" stroke="none"/><path d="M99.340 166.602 C 99.342 167.891,99.415 168.371,99.502 167.669 C 99.589 166.967,99.587 165.912,99.498 165.325 C 99.409 164.738,99.338 165.313,99.340 166.602 M107.182 169.531 C 107.182 172.217,107.244 173.315,107.320 171.973 C 107.397 170.630,107.397 168.433,107.320 167.090 C 107.244 165.747,107.182 166.846,107.182 169.531 M61.085 169.922 C 61.085 172.393,61.149 173.403,61.226 172.168 C 61.304 170.933,61.304 168.911,61.226 167.676 C 61.149 166.440,61.085 167.451,61.085 169.922 M54.087 169.754 C 51.935 170.529,49.821 172.352,48.535 174.540 L 47.461 176.367 47.461 203.320 L 47.461 230.273 48.367 231.971 C 48.865 232.905,49.357 233.586,49.459 233.483 C 49.562 233.381,49.242 232.529,48.749 231.590 L 47.852 229.883 47.733 204.102 C 47.646 185.282,47.737 177.899,48.070 176.760 C 49.094 173.259,52.233 170.512,56.097 169.737 L 57.311 169.494 57.130 171.371 C 56.617 176.718,59.974 180.440,65.332 180.460 C 66.567 180.465,67.577 180.337,67.577 180.176 C 67.576 180.015,66.370 179.859,64.897 179.830 C 59.729 179.729,58.028 177.706,57.713 171.289 C 57.602 169.024,56.916 168.734,54.087 169.754 M91.406 169.554 L 87.695 169.772 91.504 169.847 L 95.313 169.922 95.313 172.062 C 95.313 174.402,96.221 177.159,97.104 177.498 C 97.486 177.644,97.415 177.374,96.884 176.649 C 96.342 175.911,96.033 174.690,95.873 172.656 C 95.591 169.079,95.895 169.290,91.406 169.554 M110.982 171.457 C 110.936 172.731,110.744 174.313,110.555 174.973 C 110.366 175.632,110.354 176.172,110.529 176.172 C 111.015 176.172,111.317 174.650,111.323 172.168 C 111.328 170.020,111.372 169.922,112.328 169.922 C 112.895 169.922,113.223 169.753,113.086 169.531 C 112.214 168.120,111.065 169.172,110.982 171.457 M73.020 170.215 C 72.937 172.385,72.730 174.560,72.511 175.586 L 72.261 176.758 72.832 175.586 C 73.146 174.941,73.410 173.416,73.420 172.195 C 73.436 170.211,73.531 169.958,74.316 169.807 C 75.070 169.662,75.042 169.630,74.121 169.584 C 73.347 169.546,73.039 169.722,73.020 170.215 M78.437 169.822 C 80.219 169.895,83.032 169.894,84.687 169.821 C 86.341 169.748,84.883 169.689,81.445 169.689 C 78.008 169.690,76.654 169.750,78.437 169.822 M113.672 169.922 C 113.672 170.137,113.833 170.313,114.031 170.313 C 114.228 170.313,114.711 170.415,115.105 170.540 C 115.760 170.748,115.756 170.714,115.062 170.149 C 114.194 169.442,113.672 169.356,113.672 169.922 M99.330 172.461 C 99.333 173.535,99.409 173.928,99.499 173.334 C 99.589 172.741,99.586 171.862,99.494 171.381 C 99.401 170.901,99.328 171.387,99.330 172.461 M117.261 171.339 C 117.435 171.970,120.338 175.105,120.551 174.892 C 120.649 174.794,119.921 173.855,118.934 172.806 C 117.947 171.757,117.194 171.097,117.261 171.339 M120.999 177.545 C 121.103 178.085,121.342 178.623,121.531 178.740 C 121.931 178.987,121.956 178.662,121.629 177.441 C 121.306 176.237,120.766 176.326,120.999 177.545 M70.508 178.125 C 70.119 178.555,69.998 178.906,70.238 178.906 C 70.479 178.906,70.864 178.555,71.094 178.125 C 71.324 177.695,71.445 177.344,71.363 177.344 C 71.282 177.344,70.897 177.695,70.508 178.125 M98.371 178.910 C 100.876 180.997,108.594 180.668,108.594 178.474 C 108.594 178.175,108.329 178.243,107.866 178.663 C 107.466 179.025,106.719 179.419,106.206 179.539 C 105.693 179.659,104.898 179.846,104.439 179.954 C 103.255 180.235,99.368 179.362,98.810 178.689 C 98.553 178.379,98.144 178.131,97.901 178.138 C 97.659 178.145,97.871 178.492,98.371 178.910 M57.124 186.161 C 57.399 186.436,111.376 186.411,111.651 186.135 C 111.760 186.027,99.486 185.938,84.375 185.938 C 69.264 185.938,57.001 186.038,57.124 186.161 M54.865 187.287 C 54.338 187.814,53.906 188.469,53.906 188.741 C 53.906 189.013,54.176 188.852,54.505 188.381 C 54.835 187.911,55.489 187.257,55.959 186.927 C 56.430 186.598,56.592 186.328,56.319 186.328 C 56.047 186.328,55.392 186.760,54.865 187.287 M112.891 186.584 C 112.891 186.778,113.242 187.237,113.672 187.605 C 114.102 187.973,114.462 188.583,114.474 188.961 C 114.485 189.339,114.487 193.657,114.478 198.555 C 114.468 204.329,114.598 207.378,114.848 207.224 C 115.475 206.836,115.350 190.095,114.709 188.562 C 114.189 187.318,112.891 185.906,112.891 186.584 M53.696 208.203 C 53.696 218.623,53.747 222.886,53.808 217.676 C 53.870 212.466,53.870 203.940,53.808 198.730 C 53.747 193.521,53.696 197.783,53.696 208.203 M84.072 191.699 L 90.604 191.816 90.712 197.568 L 90.820 203.320 96.612 203.429 C 100.741 203.506,102.327 203.414,102.138 203.108 C 101.960 202.820,100.091 202.720,96.444 202.805 L 91.015 202.930 91.015 197.168 L 91.016 191.406 84.277 191.494 L 77.539 191.581 84.072 191.699 M77.805 200.879 L 77.734 202.734 72.754 202.740 C 70.015 202.744,67.510 202.917,67.188 203.125 C 66.793 203.380,68.328 203.504,71.875 203.504 C 78.130 203.504,78.220 203.466,78.024 200.939 L 77.875 199.023 77.805 200.879 M66.103 209.473 C 66.036 214.483,66.130 216.021,66.504 216.038 C 70.414 216.220,78.124 216.141,78.125 215.918 C 78.125 215.757,75.493 215.625,72.275 215.625 L 66.426 215.625 66.308 209.277 L 66.190 202.930 66.103 209.473 M115.223 208.963 C 115.670 209.799,116.413 210.385,116.394 209.886 C 116.377 209.451,115.403 208.203,115.080 208.203 C 114.935 208.203,114.999 208.545,115.223 208.963 M121.777 210.286 C 121.616 210.679,121.484 211.514,121.484 212.141 C 121.484 213.440,121.233 213.531,120.009 212.673 C 119.531 212.339,119.137 212.207,119.132 212.380 C 119.127 212.554,118.784 212.256,118.370 211.719 C 117.641 210.774,117.618 210.770,117.678 211.594 C 117.712 212.063,117.836 212.422,117.952 212.393 C 118.069 212.363,118.727 212.639,119.414 213.006 C 121.671 214.208,122.520 213.503,122.198 210.692 C 122.093 209.771,122.018 209.698,121.777 210.286 M102.344 215.169 C 102.344 215.496,100.688 215.625,96.484 215.625 L 90.625 215.625 90.712 221.973 L 90.799 228.320 90.917 222.150 L 91.036 215.980 96.515 216.111 C 101.773 216.237,103.535 215.905,102.595 214.965 C 102.457 214.826,102.344 214.919,102.344 215.169 M107.910 215.131 C 108.931 215.211,110.601 215.211,111.621 215.131 C 112.642 215.050,111.807 214.985,109.766 214.985 C 107.725 214.985,106.890 215.050,107.910 215.131 M77.859 219.531 C 77.859 220.928,77.930 221.499,78.017 220.801 C 78.104 220.103,78.104 218.960,78.017 218.262 C 77.930 217.563,77.859 218.135,77.859 219.531 M109.091 222.656 C 109.091 223.623,109.167 224.019,109.260 223.535 C 109.353 223.052,109.353 222.261,109.260 221.777 C 109.167 221.294,109.091 221.689,109.091 222.656 M77.740 227.441 C 77.735 228.068,78.262 228.118,84.082 228.038 L 90.430 227.952 84.391 227.832 C 80.171 227.749,78.262 227.569,78.050 227.235 C 77.839 226.903,77.745 226.966,77.740 227.441 M53.907 227.656 C 53.905 228.819,55.195 230.513,56.646 231.253 C 58.156 232.023,58.767 232.042,79.587 231.940 L 100.977 231.836 100.850 235.059 L 100.724 238.281 78.975 238.264 C 61.836 238.251,56.916 238.136,55.762 237.724 C 54.956 237.437,54.297 237.321,54.297 237.468 C 54.297 238.443,57.861 238.626,79.102 238.736 L 101.367 238.852 101.367 235.210 L 101.367 231.569 79.644 231.602 L 57.921 231.636 56.597 230.751 C 55.869 230.265,54.966 229.256,54.590 228.508 C 54.215 227.760,53.907 227.377,53.907 227.656 M50.472 234.899 C 51.777 236.234,53.906 237.621,53.906 237.136 C 53.906 236.907,53.762 236.719,53.586 236.719 C 53.410 236.719,52.547 236.104,51.668 235.352 C 49.855 233.799,49.128 233.524,50.472 234.899 " fill="#336aa6" fill-rule="evenodd" id="path3" stroke="none"/><path d="M68.697 164.746 C 68.475 165.988,68.621 174.491,68.862 174.343 C 69.166 174.157,69.208 164.453,68.905 164.453 C 68.820 164.453,68.726 164.585,68.697 164.746 M106.552 172.559 C 106.462 173.579,106.255 174.766,106.092 175.195 C 105.800 175.965,105.805 175.966,106.413 175.218 C 106.786 174.761,107.031 173.714,107.031 172.582 C 107.031 170.174,106.764 170.161,106.552 172.559 M277.539 181.250 C 277.406 181.465,277.670 181.641,278.125 181.641 C 278.580 181.641,278.844 181.465,278.711 181.250 C 278.578 181.035,278.314 180.859,278.125 180.859 C 277.936 180.859,277.672 181.035,277.539 181.250 M135.156 198.805 C 135.156 209.973,135.290 215.625,135.555 215.625 C 136.084 215.625,136.060 182.544,135.531 182.217 C 135.294 182.070,135.156 188.170,135.156 198.805 M313.877 182.797 C 313.623 183.208,314.462 184.766,314.938 184.766 C 315.438 184.766,315.268 184.108,314.630 183.578 C 314.147 183.178,314.128 183.012,314.532 182.755 C 314.889 182.529,314.901 182.432,314.574 182.428 C 314.318 182.425,314.004 182.591,313.877 182.797 M316.119 182.702 C 316.712 182.792,317.591 182.790,318.072 182.697 C 318.552 182.604,318.066 182.531,316.992 182.534 C 315.918 182.537,315.525 182.612,316.119 182.702 M338.384 182.702 C 338.978 182.792,339.857 182.790,340.337 182.697 C 340.818 182.604,340.332 182.531,339.258 182.534 C 338.184 182.537,337.791 182.612,338.384 182.702 M141.406 187.033 C 141.406 187.494,148.705 187.624,148.987 187.169 C 149.125 186.945,147.662 186.779,145.311 186.750 C 143.163 186.724,141.406 186.851,141.406 187.033 M164.702 190.928 C 164.599 191.095,165.644 191.282,167.023 191.344 C 168.607 191.415,169.531 191.304,169.531 191.041 C 169.531 190.562,164.994 190.456,164.702 190.928 M256.863 191.059 C 257.022 191.316,257.682 191.403,258.489 191.272 C 260.733 190.908,262.042 191.346,262.234 192.525 C 262.341 193.181,262.390 193.024,262.371 192.090 L 262.340 190.625 259.467 190.625 C 257.461 190.625,256.675 190.756,256.863 191.059 M269.238 190.894 C 269.614 190.993,270.229 190.993,270.605 190.894 C 270.981 190.796,270.674 190.716,269.922 190.716 C 269.170 190.716,268.862 190.796,269.238 190.894 M274.890 191.129 C 274.740 191.521,275.185 191.578,276.899 191.383 C 278.110 191.245,279.304 191.206,279.550 191.296 C 279.797 191.386,280.115 191.272,280.257 191.042 C 280.430 190.762,279.626 190.625,277.799 190.625 C 275.942 190.625,275.022 190.784,274.890 191.129 M286.719 191.000 C 287.991 191.428,291.306 191.494,291.551 191.097 C 291.656 190.927,290.392 190.762,288.742 190.730 C 286.674 190.690,286.045 190.774,286.719 191.000 M197.119 191.328 C 196.959 191.586,196.913 191.797,197.015 191.797 C 197.118 191.797,197.480 191.904,197.820 192.034 C 198.165 192.167,198.438 192.070,198.438 191.816 C 198.438 191.565,198.277 191.460,198.080 191.581 C 197.884 191.702,197.652 191.590,197.566 191.330 C 197.444 190.964,197.344 190.963,197.119 191.328 M224.483 193.309 C 224.604 193.773,224.843 194.239,225.013 194.344 C 225.476 194.630,225.216 193.419,224.705 192.909 C 224.375 192.578,224.319 192.680,224.483 193.309 M183.789 193.994 C 183.087 194.592,182.943 194.829,183.431 194.587 C 184.147 194.232,185.490 192.946,185.106 192.983 C 185.026 192.991,184.434 193.446,183.789 193.994 M178.125 195.085 C 178.125 195.819,177.905 196.508,177.637 196.616 C 177.328 196.741,177.385 196.825,177.790 196.844 C 178.143 196.861,178.539 196.597,178.669 196.257 C 179.041 195.288,178.947 193.750,178.516 193.750 C 178.301 193.750,178.125 194.351,178.125 195.085 M267.090 196.363 C 266.714 196.461,266.406 196.711,266.406 196.917 C 266.406 197.138,266.743 197.113,267.224 196.856 C 267.674 196.615,268.465 196.524,268.982 196.654 C 269.514 196.788,269.922 196.717,269.922 196.492 C 269.922 196.095,268.385 196.025,267.090 196.363 M186.419 200.391 C 186.419 201.143,186.499 201.450,186.597 201.074 C 186.696 200.698,186.696 200.083,186.597 199.707 C 186.499 199.331,186.419 199.639,186.419 200.391 M203.753 201.399 C 203.408 202.298,203.462 204.999,203.830 205.226 C 204.003 205.333,204.163 204.377,204.185 203.101 C 204.229 200.681,204.149 200.367,203.753 201.399 M327.498 203.582 C 327.308 203.889,327.429 203.957,327.866 203.790 C 328.223 203.652,328.516 203.710,328.516 203.919 C 328.516 204.127,328.713 204.297,328.954 204.297 C 329.257 204.297,329.242 204.116,328.906 203.711 C 328.322 203.007,327.879 202.966,327.498 203.582 M304.699 203.906 C 304.699 204.229,304.870 204.756,305.078 205.078 C 305.415 205.599,305.457 205.599,305.457 205.078 C 305.457 204.756,305.286 204.229,305.078 203.906 C 304.742 203.385,304.699 203.385,304.699 203.906 M143.750 204.341 C 142.903 204.492,143.833 204.604,146.191 204.636 C 148.286 204.664,150.000 204.528,150.000 204.334 C 150.000 203.947,145.934 203.952,143.750 204.341 M180.422 204.993 C 180.294 205.769,180.351 206.133,180.568 205.917 C 180.764 205.720,180.860 205.143,180.780 204.635 C 180.657 203.853,180.602 203.908,180.422 204.993 M226.172 208.571 C 226.172 209.228,226.348 209.766,226.563 209.766 C 226.777 209.766,226.953 209.337,226.953 208.812 C 226.953 208.288,226.777 207.750,226.563 207.617 C 226.335 207.476,226.172 207.874,226.172 208.571 M188.482 210.266 C 188.860 210.864,189.267 211.254,189.387 211.134 C 189.507 211.014,189.198 210.525,188.701 210.048 L 187.796 209.180 188.482 210.266 M200.391 209.678 C 200.391 210.029,202.713 211.480,202.929 211.264 C 203.006 211.187,202.466 210.729,201.730 210.246 C 200.993 209.763,200.391 209.507,200.391 209.678 M252.148 211.633 C 251.934 211.795,251.230 212.528,250.586 213.262 L 249.414 214.598 250.636 213.647 C 252.045 212.549,253.489 210.627,252.148 211.633 M201.568 213.080 C 200.842 213.829,200.325 214.490,200.417 214.548 C 200.510 214.607,201.227 213.995,202.011 213.187 C 202.794 212.380,203.312 211.719,203.161 211.719 C 203.011 211.719,202.294 212.331,201.568 213.080 M192.773 216.797 C 192.641 217.012,192.904 217.188,193.359 217.188 C 193.814 217.188,194.078 217.012,193.945 216.797 C 193.813 216.582,193.549 216.406,193.359 216.406 C 193.170 216.406,192.906 216.582,192.773 216.797 M241.406 216.797 C 241.406 217.012,241.934 217.188,242.578 217.188 C 243.223 217.188,243.750 217.012,243.750 216.797 C 243.750 216.582,243.223 216.406,242.578 216.406 C 241.934 216.406,241.406 216.582,241.406 216.797 M109.082 218.618 C 108.813 218.726,108.594 218.998,108.594 219.221 C 108.594 219.497,108.750 219.500,109.082 219.230 C 109.351 219.012,109.922 218.748,110.352 218.642 L 111.133 218.450 110.352 218.436 C 109.922 218.428,109.351 218.510,109.082 218.618 M116.016 221.898 C 116.016 222.340,116.191 222.594,116.406 222.461 C 116.621 222.328,116.797 221.966,116.797 221.657 C 116.797 221.347,116.621 221.094,116.406 221.094 C 116.191 221.094,116.016 221.456,116.016 221.898 M108.692 225.391 C 108.799 225.790,109.400 225.991,110.577 226.022 C 112.292 226.067,112.293 226.066,110.747 225.895 C 109.891 225.801,109.042 225.516,108.862 225.264 C 108.637 224.948,108.584 224.988,108.692 225.391 M110.254 228.785 C 110.630 228.883,111.245 228.883,111.621 228.785 C 111.997 228.687,111.689 228.606,110.938 228.606 C 110.186 228.606,109.878 228.687,110.254 228.785 M123.242 229.664 L 121.680 229.920 123.486 230.097 C 124.824 230.228,125.243 230.147,125.104 229.785 C 125.001 229.517,124.891 229.322,124.861 229.352 C 124.830 229.383,124.102 229.523,123.242 229.664 M119.801 232.208 C 119.489 232.520,119.125 232.666,118.992 232.533 C 118.859 232.400,118.750 232.497,118.750 232.747 C 118.750 233.434,119.326 233.297,120.117 232.422 C 120.925 231.529,120.660 231.349,119.801 232.208 M112.446 241.428 C 111.572 242.189,111.569 242.210,112.381 241.817 C 112.852 241.589,113.346 241.227,113.478 241.014 C 113.862 240.392,113.441 240.561,112.446 241.428 " fill="#061c46" fill-rule="evenodd" id="path4" stroke="none"/></g></svg>